<svg xmlns="http://www.w3.org/2000/svg" height="1200" width="1600" version="1.1" xmlns:xlink="http://www.w3.org/1999/xlink" xmlns:svgjs="http://svgjs.com/svgjs"><rect fill="#f3ebe9" width="1600" height="1200"></rect><g><path d="M1084.39 314.48C1166.83 410.84 1220.37 536.65 1196.81 647.48 1173.26 757.76 1072.61 853.06 953.22 910.88 833.84 969.23 696.25 990.11 598.27 939.25 500.84 887.86 443.55 763.65 414.64 634.09 385.73 504.53 384.66 369.08 449.98 276.47 515.83 183.85 648.06 134.59 769.59 142.62 891.12 151.19 1001.94 218.11 1084.39 314.48Z" fill="#efdcd7" opacity="1" stroke-width="4" stroke="none"></path></g><g><path d="M1314.74 992.25H1149.7L1229.42 837.37 1229.7 837.25H1235.16L1314.74 992.25Z" fill="#419cc8" opacity="1" stroke-width="4" stroke="none"></path><path d="M1212.74 992.25H1149.7L1229.56 837.12H1235.16L1212.74 992.25Z" fill="#121212" opacity="0.3" stroke-width="4" stroke="none"></path><path d="M285.26 992.25H1155.58L1235.02 837.5C1235.16 837.37 1235.02 837.12 1234.74 837.12H1229.7L364.98 837.12 285.26 992.25Z" fill="#cceefe" opacity="1" stroke-width="4" stroke="none"></path><path d="M1150.26 837.12C1176.74 857.11 1191.17 878.7 1201.82 902.03L1155.58 992.25H692.96C659.34 951.3 583.68 884.28 485.61 837.12H627.11C770.02 885.53 863.89 970.29 985.78 944.1 1054.85 929.21 1041.68 868.65 1011.84 837.12H1150.26Z" fill="#61ccff" opacity="1" stroke-width="4" stroke="none"></path><path d="M388.38 992.25C393.56 966.44 416.4 938.77 457.31 935.79 501.72 932.68 547.53 959.24 582 992.25H388.38Z" fill="#61ccff" opacity="1" stroke-width="4" stroke="none"></path></g><g><path d="M1078.84 80.79H1110.46C1186.34 80.79 1247.82 142.27 1247.82 218.15 1247.82 294.03 1186.34 355.52 1110.46 355.52H1077.75L1078.84 80.79Z" fill="#9e76dd" opacity="1" stroke-width="4" stroke="none"></path><path d="M1077.75 355.52C1001.89 355.52 940.39 294.02 940.39 218.15 940.39 142.29 1001.89 80.79 1077.75 80.79 1153.62 80.79 1215.12 142.29 1215.12 218.15 1215.12 294.02 1153.62 355.52 1077.75 355.52Z" fill="#9e76dd" opacity="1" stroke-width="4" stroke="none"></path><path d="M1082.55 283.24L1231.47 283.24C1207.49 327.72 1161.04 355.52 1110.46 355.52H1077.75L1082.55 283.24Z" fill="#020202" opacity="0.3" stroke-width="4" stroke="none"></path><path d="M1046.14 80.79L1077.75 80.79C1153.63 80.79 1215.12 142.27 1215.12 218.15 1215.12 294.03 1153.63 355.52 1077.75 355.52H1045.05L1046.14 80.79Z" fill="#ffa0dc" opacity="1" stroke-width="4" stroke="none"></path><path d="M1052.02 239.96L1213.37 239.96C1202.69 306.57 1145.24 355.52 1077.75 355.52H1045.05L1052.02 239.96Z" fill="#979797" opacity="0.3" stroke-width="4" stroke="none"></path><path d="M1045.05 355.52C969.18 355.52 907.68 294.02 907.68 218.15 907.68 142.29 969.18 80.79 1045.05 80.79 1120.91 80.79 1182.41 142.29 1182.41 218.15 1182.41 294.02 1120.91 355.52 1045.05 355.52Z" fill="#ffa0dc" opacity="1" stroke-width="4" stroke="none"></path><path d="M1045.05 80.79C1120.92 80.79 1182.41 142.27 1182.41 218.15 1182.41 294.03 1120.92 355.52 1045.05 355.52" stroke="#979797" stroke-width="4" stroke-linecap="round" stroke-linejoin="round" opacity="1" fill="none"></path><path d="M1045.05 287.93C1006.51 287.93 975.27 256.69 975.27 218.15 975.27 179.61 1006.51 148.38 1045.05 148.38 1083.58 148.38 1114.82 179.61 1114.82 218.15 1114.82 256.69 1083.58 287.93 1045.05 287.93Z" fill="#231f20" opacity="1" stroke-width="4" stroke="none"></path><path d="M770.53 561.35C797.13 561.57 822.64 550.12 840.2 530.17 850.55 518.18 851.21 506.84 850.01 499.32 849.25 494.52 847.39 489.94 844.67 485.8L829.29 397.93H829.19C828.86 397.82 795.93 387.24 765.74 387.24 744.59 387.24 729.76 392.26 721.58 402.29 714.5 410.9 712.53 423.33 715.8 439.14 713.41 440.34 685.39 456.04 694.76 503.9 697.92 521.23 707.85 536.6 722.24 546.74 735.65 556.12 752.76 561.35 770.53 561.35Z" fill="#231f20" opacity="1" stroke-width="4" stroke="none"></path><path d="M963.61 350.83C978.87 312.35 1003.95 245.84 1004.93 243.34 1022.26 231.34 1022.37 199.95 1022.37 199.62V199.4L990.21 191.33C986.18 190.35 983.12 186.97 982.69 182.83 982.25 179.34 981.38 175.63 979.63 173.78 978.98 173.13 978.11 172.69 977.24 172.69 976.58 172.69 975.82 172.91 975.27 173.24 971.78 174.98 960.99 199.84 947.36 231.45 934.61 260.89 920.22 294.03 907.57 318.23L907.79 318.78 962.84 351.38 963.61 350.83Z" fill="#c65a42" opacity="1" stroke-width="4" stroke="none"></path><path d="M902.12 524.72C905.5 511.53 908.55 500.62 911.17 491.9 923.16 451.89 940.28 409.27 956.74 368.06L961.21 356.72C961.97 354.86 963.61 350.83 963.61 350.83L907.57 318.23 907.46 318.45C886.53 358.68 872.68 393.35 872.58 393.68L825.59 496.37 898.96 529.19 902.12 524.72Z" fill="#3c2c5b" opacity="1" stroke-width="4" stroke="none"></path><path d="M887.18 588.39V588.17C887.29 587.84 894.27 555.68 902.12 524.83V524.72L902.01 524.61C902.01 524.61 898.2 521.12 892.96 510.11 888.06 499.97 880.86 481.22 874.1 449.17V449.06L814.9 433.69V433.9C814.79 434.34 807.82 481.98 794.19 505.75 785.58 520.79 768.24 536.71 768.03 536.93L767.92 537.04V537.15C774.13 565.38 779.04 588.17 779.04 588.17V588.39H887.18Z" fill="#ffa0dc" opacity="1" stroke-width="4" stroke="none"></path><path d="M853.39 459.52C854.81 459.52 856.11 459.42 857.53 459.31 867.78 458.22 874.1 449.17 874.1 449.06L872.9 426.49C886.97 427.8 896.78 424.31 902.01 415.81 907.9 406.43 905.28 395.75 902.88 385.39 902.67 384.41 902.45 383.54 902.23 382.56 901.36 377.98 900.81 373.4 900.49 368.71 899.94 363.26 899.39 357.15 898.3 351.48 896.89 343.85 894.82 338.29 891.98 334.48 881.73 320.74 866.69 323.03 844.23 324.12 832.89 324.67 822.32 329.57 814.58 337.75 807.16 345.6 803.24 355.95 803.46 366.75 803.57 370.45 801.06 369.47 801.71 382.23L804.98 427.36C809.02 433.69 813.81 439.46 819.37 444.48 827.01 451.67 838.89 459.52 853.39 459.52Z" fill="#c65a42" opacity="1" stroke-width="4" stroke="none"></path><path d="M812.83 429C819.26 429 832.78 424.75 836.16 414.5L836.27 414.17 835.94 413.95C835.73 413.84 812.72 400.11 816.54 384.95 818.17 378.63 822.86 375.36 830.6 375.36 836.05 375.58 841.4 376.67 846.41 378.74L846.74 378.85 846.96 378.52C846.96 378.41 849.79 372.74 846.85 364.13 846.63 363.59 847.17 362.93 847.83 363.15 851.32 364.13 854.81 364.79 858.29 364.89 862.98 364.89 866.47 363.48 868.54 360.53 871.59 356.5 871.16 350.72 870.5 347.23 870.4 346.58 871.16 346.14 871.7 346.47 880.43 351.81 887.4 353.01 891.87 353.01 894.05 353.12 896.02 353.34 898.09 352.58L898.52 352.47 898.3 351.48C896.89 343.85 895.03 338.4 892.09 334.48 882.5 321.72 866.14 314.64 845.87 314.64 844.34 314.64 842.81 314.64 841.18 314.74 816.98 316.05 798.11 334.37 798.11 356.5 798.11 366.97 799.75 396.18 800.95 417.44L801.49 426.49 801.71 426.6C805.2 428.24 809.02 429 812.83 429Z" fill="#231f20" opacity="1" stroke-width="4" stroke="none"></path><path d="M872.9 426.49C867.34 425.73 861.89 423.44 856.66 421.37" stroke="#000000" stroke-width="4" stroke-linecap="round" stroke-linejoin="round" opacity="1" fill="none"></path><path d="M880.97 379.29L881.62 381.57C882.06 382.88 881.62 384.3 880.64 385.28L880.43 385.5" stroke="#000000" stroke-width="4" stroke-linecap="round" stroke-linejoin="round" opacity="1" fill="none"></path><path d="M883.26 395.86C881.73 396.95 876.83 397.06 873.99 393.57" stroke="#000000" stroke-width="4" stroke-linecap="round" stroke-linejoin="round" opacity="1" fill="none"></path><path d="M867.78 379.72C866.27 379.72 865.05 378.5 865.05 377 865.05 375.49 866.27 374.27 867.78 374.27 869.28 374.27 870.5 375.49 870.5 377 870.5 378.5 869.28 379.72 867.78 379.72Z" fill="#231f20" opacity="1" stroke-width="4" stroke="none"></path><path d="M891.11 376.23C889.6 376.23 888.38 375.01 888.38 373.51 888.38 372 889.6 370.78 891.11 370.78 892.61 370.78 893.83 372 893.83 373.51 893.83 375.01 892.61 376.23 891.11 376.23Z" fill="#231f20" opacity="1" stroke-width="4" stroke="none"></path><path d="M1000.35 1066.88C1000.35 1066.77 1001.11 1060.77 995.66 1051.94L992.06 1049.65 866.91 1050.74 865.71 1051.83C866.36 1057.28 867.56 1066.99 867.56 1066.99L1000.35 1066.88Z" fill="#231f20" opacity="1" stroke-width="4" stroke="none"></path><path d="M810.65 1067.1V1066.88C810.65 1066.77 810.54 1059.46 805.09 1050.63L804 1050.2 677.43 1050.85 677.1 1051.29C677.32 1056.74 677.43 1061.75 677.76 1066.88V1067.1L810.65 1067.1Z" fill="#231f20" opacity="1" stroke-width="4" stroke="none"></path><path d="M992.5 1047.14C989.66 1043.11 984.65 1037.99 976.58 1032.75 953.47 1017.82 952.05 998.85 952.6 979.12V978.9H922.83C915.75 978.9 910.08 984.57 910.08 991.65 910.08 992.2 910.08 992.85 910.19 993.4L912.91 1012.69 864.29 1012.37 862.44 1014.87C863.2 1026.98 864.07 1037.88 865.6 1051.07L865.71 1051.83 995.01 1052.92C995.55 1052.92 995.88 1052.38 995.66 1051.94L992.5 1047.14Z" fill="#9e76dd" opacity="1" stroke-width="4" stroke="none"></path><path d="M804.77 1051.29C805.09 1051.29 805.31 1050.85 805.09 1050.63L802.58 1046.93C800.4 1044.42 794.95 1037.99 786.89 1032.75 763.34 1017.38 765.63 1000.81 771.19 980.64L769.55 974.1 731.61 975.3C724.53 975.3 719.84 984.13 719.84 991.22 719.84 991.76 718.86 992.63 718.97 993.18L719.4 1008.01 678.85 995.8 676.88 1013.35C676.45 1025.78 676.67 1037.88 677.1 1050.85V1051.29L804.77 1051.29Z" fill="#9e76dd" opacity="1" stroke-width="4" stroke="none"></path><path d="M913.35 1013.13L910.62 993.4C909.64 986.64 914.33 980.42 921.09 979.44 921.64 979.33 922.18 979.33 922.83 979.33L952.6 978.9C952.6 978.9 952.6 977.81 952.6 976.94 952.92 966.91 953.58 954.37 954.34 939.76 956.19 904 958.48 859.41 956.96 827.47 956.85 823.98 956.63 820.49 956.3 816.78L954.67 814.39 867.02 813.3 864.94 819.62C866.91 825.61 867.34 828.99 868.21 835.32 871.27 860.07 868.87 880.02 866.14 903.24 862.87 930.93 859.17 962.44 862.33 1013.02L862.44 1014.98 913.35 1013.13Z" fill="#c65a42" opacity="1" stroke-width="4" stroke="none"></path><path d="M725.83 1013.13L723.11 993.4C722.13 986.64 726.82 980.42 733.57 979.44 734.12 979.33 734.66 979.33 735.32 979.33L771.19 980.64 771.62 979.22C774.46 969.19 781.87 948.26 790.59 923.95 798.66 901.49 807.82 876.09 814.14 856.47 817.52 845.89 821.34 832.27 825.15 816.57L824.39 816.13 730.2 815.37 727.91 816.78C727.03 821.91 725.94 827.03 724.31 832.05 722.67 837.17 719.73 843.28 716.02 851.13 702.39 879.91 679.61 927.99 676.88 1013.13V1013.35L725.83 1013.13Z" fill="#c65a42" opacity="1" stroke-width="4" stroke="none"></path><path d="M838.89 753.44C849.03 776.77 858.62 798.9 864.07 816.68L864.94 819.62 956.3 816.78V816.57C947.8 701.66 887.73 589.04 887.18 587.95L887.08 587.84H779.15L779.04 587.95C778.71 588.28 749.16 621.86 740.01 689.45 735.97 719.65 734.23 745.05 732.7 767.51 731.39 786.69 730.3 803.27 727.91 816.57V816.78L824.82 816.78C824.93 816.78 825.15 816.68 825.15 816.57 825.92 813.08 834.31 776.45 838.89 753.44Z" fill="#ffa0dc" opacity="1" stroke-width="4" stroke="none"></path><path d="M881.41 816.89V816.68C878.46 772.19 872.14 727.93 862.76 684.32 862.11 681.49 859.28 679.64 856.44 680.29 854.37 680.73 853.82 682.58 853.39 684.65L838.89 753.44C849.14 777.1 857.86 796.07 863.85 816.02L864.94 819.62 881.41 819.18V816.89Z" fill="#979797" opacity="0.3" stroke-width="4" stroke="none"></path><path d="M853.39 684.65C848.92 710.49 844.67 724.88 838.89 753.44" stroke="#979797" stroke-width="4" stroke-linecap="round" stroke-linejoin="round" opacity="1" fill="none"></path><path d="M886.97 588.17H779.25" stroke="#979797" stroke-width="4" stroke-linecap="round" stroke-linejoin="round" opacity="1" fill="none"></path><path d="M956.96 1010.95L939.3 1016.18" stroke="#020202" stroke-width="4" stroke-linecap="round" stroke-linejoin="round" opacity="1" fill="none"></path><path d="M965.24 1023.81L949.11 1032.54" stroke="#020202" stroke-width="4" stroke-linecap="round" stroke-linejoin="round" opacity="1" fill="none"></path><path d="M768.9 1010.84L750.69 1016.18" stroke="#020202" stroke-width="4" stroke-linecap="round" stroke-linejoin="round" opacity="1" fill="none"></path><path d="M775.98 1023.49L760.5 1031.45" stroke="#020202" stroke-width="4" stroke-linecap="round" stroke-linejoin="round" opacity="1" fill="none"></path><path d="M787.76 325.97V325.76C775.33 282.8 764.86 247.81 756.69 221.75 747.75 193.08 739.79 171.27 737.83 169.97 737.17 169.53 736.41 169.2 735.54 169.2 729.76 169.2 726.92 184.57 726.6 186.32L689.53 196.13V196.24C689.42 196.46 683.86 218.48 699.67 232.43 700.21 235.27 715.26 313.44 725.51 352.25L725.62 352.47 787.76 325.97Z" fill="#c65a42" opacity="1" stroke-width="4" stroke="none"></path><path d="M768.46 538.02C783.51 530.82 795.5 518.72 803.24 503.9 819.48 472.61 817.41 443.06 817.41 442.73 817.3 442.19 805.2 387.46 787.65 325.76L787.54 325.54 725.29 352.14V352.36C730.3 371.22 740.66 417.01 745.13 436.52 746.11 441.1 746.88 444.15 747.09 445.02 750.69 460.18 758.1 493.76 764.65 523.41L768.13 538.24 768.46 538.02Z" fill="#3c2c5b" opacity="1" stroke-width="4" stroke="none"></path><path d="M817.19 442.73C817.19 442.73 819.37 472.17 803.02 503.79 795.39 518.5 783.18 530.39 768.13 537.58" stroke="#979797" stroke-width="4" stroke-linecap="round" stroke-linejoin="round" opacity="1" fill="none"></path><path d="M981.81 212.7C985.08 219.24 986.18 230.15 986.18 230.15" stroke="#000000" stroke-width="4" stroke-linecap="round" stroke-linejoin="round" opacity="1" fill="none"></path><path d="M1042.87 229.05C1042.21 229.05 1041.56 228.95 1040.9 228.84 1040.14 228.73 965.79 215.43 858.08 215.43 790.59 215.65 723.22 220.12 656.28 228.95 650.28 229.82 644.83 225.68 643.96 219.68 643.09 213.68 647.23 208.23 653.12 207.36 721.04 198.42 789.5 193.84 857.97 193.62 967.75 193.62 1041.67 206.81 1044.72 207.47 1050.61 208.56 1054.53 214.23 1053.44 220.12 1052.68 225.24 1048.1 229.05 1042.87 229.05Z" fill="#ffffff" opacity="1" stroke-width="4" stroke="none"></path><path d="M982.69 196.24C981.92 198.97 981.6 201.58 981.38 204.09 981.05 208.45 981.92 211.61 983.78 213.68 985.41 215.32 987.59 216.19 989.88 215.97 991.19 215.97 992.39 215.75 993.59 215.43 996.42 220.55 1000.13 221.64 1002.75 221.64 1004.16 221.64 1005.47 221.31 1006.78 220.88 1008.42 221.53 1010.16 221.97 1012.01 222.08 1014.74 221.97 1017.36 220.66 1018.99 218.48 1019.97 218.7 1020.95 218.81 1021.93 218.92 1023.79 219.02 1025.53 218.26 1026.84 216.95 1029.24 214.34 1029.24 209.76 1028.91 206.27 1027.93 197 1022.26 196.24 1020.52 196.24 1020.3 196.24 1020.19 196.24 1020.08 196.24 1018.55 193.19 1015.39 191.33 1011.9 191.55 1010.92 191.55 1010.05 191.66 1009.07 191.88 1006.89 188.94 1004.38 187.41 1001.44 187.41 999.91 187.41 998.39 187.85 997.08 188.61 996.42 187.85 988.68 181.41 984.21 190.35L982.69 196.24Z" fill="#c65a42" opacity="1" stroke-width="4" stroke="none"></path><path d="M873.88 449.28C886.97 511.42 901.9 524.83 901.9 524.83" stroke="#979797" stroke-width="4" stroke-linecap="round" stroke-linejoin="round" opacity="1" fill="none"></path><path d="M1019.97 196.35C1022.15 202.89 1021.06 213.79 1018.88 218.15" stroke="#000000" stroke-width="4" stroke-linecap="round" stroke-linejoin="round" opacity="1" fill="none"></path><path d="M1009.07 191.99C1010.38 201.47 1009.61 211.18 1006.89 220.33" stroke="#000000" stroke-width="4" stroke-linecap="round" stroke-linejoin="round" opacity="1" fill="none"></path><path d="M997.08 188.72C998.17 193.08 998.17 209.43 993.81 214.88" stroke="#000000" stroke-width="4" stroke-linecap="round" stroke-linejoin="round" opacity="1" fill="none"></path><path d="M679.83 80.79H711.44C787.32 80.79 848.81 142.27 848.81 218.15 848.81 294.03 787.32 355.52 711.44 355.52H678.74L679.83 80.79Z" fill="#9e76dd" opacity="1" stroke-width="4" stroke="none"></path><path d="M678.74 355.52C602.87 355.52 541.37 294.02 541.37 218.15 541.37 142.29 602.87 80.79 678.74 80.79 754.6 80.79 816.1 142.29 816.1 218.15 816.1 294.02 754.6 355.52 678.74 355.52Z" fill="#9e76dd" opacity="1" stroke-width="4" stroke="none"></path><path d="M683.53 283.24H832.46C808.47 327.72 762.03 355.52 711.44 355.52H678.74L683.53 283.24Z" fill="#020202" opacity="0.3" stroke-width="4" stroke="none"></path><path d="M647.12 80.79H678.74C754.62 80.79 816.1 142.27 816.1 218.15 816.1 294.03 754.62 355.52 678.74 355.52H646.03L647.12 80.79Z" fill="#ffa0dc" opacity="1" stroke-width="4" stroke="none"></path><path d="M653.01 239.96L814.36 239.96C803.67 306.57 746.22 355.52 678.74 355.52H646.03L653.01 239.96Z" fill="#979797" opacity="0.3" stroke-width="4" stroke="none"></path><path d="M646.03 355.52C570.16 355.52 508.67 294.02 508.67 218.15 508.67 142.29 570.16 80.79 646.03 80.79 721.9 80.79 783.4 142.29 783.4 218.15 783.4 294.02 721.9 355.52 646.03 355.52Z" fill="#ffa0dc" opacity="1" stroke-width="4" stroke="none"></path><path d="M646.03 80.79C721.91 80.79 783.4 142.27 783.4 218.15 783.4 294.03 721.91 355.52 646.03 355.52" stroke="#979797" stroke-width="4" stroke-linecap="round" stroke-linejoin="round" opacity="1" fill="none"></path><path d="M646.03 287.93C607.49 287.93 576.26 256.69 576.26 218.15 576.26 179.61 607.49 148.38 646.03 148.38 684.57 148.38 715.8 179.61 715.8 218.15 715.8 256.69 684.57 287.93 646.03 287.93Z" fill="#231f20" opacity="1" stroke-width="4" stroke="none"></path><path d="M646.03 239.96C633.98 239.96 624.23 230.2 624.23 218.15 624.23 206.11 633.98 196.35 646.03 196.35 658.08 196.35 667.84 206.11 667.84 218.15 667.84 230.2 658.08 239.96 646.03 239.96Z" fill="#ffffff" opacity="1" stroke-width="4" stroke="none"></path><path d="M853.28 419.62L852.95 419.4V419.73C852.95 421.15 853.61 422.57 854.7 423.44L873.56 439.57 872.9 426.49C866.03 425.29 859.49 423 853.28 419.62Z" fill="#000000" opacity="0.3" stroke-width="4" stroke="none"></path><path d="M887.18 588.06L892.85 562.98 777.84 582.61 779.04 587.95 887.18 588.06Z" fill="#979797" opacity="0.3" stroke-width="4" stroke="none"></path></g></svg>